# xmcd
#
# Track frame offsets:
#	150
#	15796
#	29066
#	48919
#	83978
#	97180
#	111243
#	135112
#	150576
#	167981
#	193784
#	217835
#	236467
#
# Disc length: 3516 seconds
# Revision: 2
# Processed by: cddbd v1.5.2PL0 Copyright (c) Steve Scherf et al.
# Submitted via: dBpowerAMP V12.0
#
DISCID=a00dba0d
DTITLE=Bluebone - Blue Bone
DYEAR=2002
DGENRE=Blues
TTITLE0=She Took a Taxi
TTITLE1=Matchbox
TTITLE2=Y3x
TTITLE3=When Blue Was Just a Color
TTITLE4=Hey Baby
TTITLE5=Life's Twisted Tree
TTITLE6=Faster Than You Know
TTITLE7=Girl of My Dreams
TTITLE8=Bad Dog
TTITLE9=Exit Zero
TTITLE10=Freudian Slip
TTITLE11=Tough Break
TTITLE12=Big Love
EXTD=
EXTT0=
EXTT1=
EXTT2=
EXTT3=
EXTT4=
EXTT5=
EXTT6=
EXTT7=
EXTT8=
EXTT9=
EXTT10=
EXTT11=
EXTT12=
PLAYORDER=
